<svg width="673" height="672" viewBox="0 0 673 672" fill="none" xmlns="http://www.w3.org/2000/svg">
<path d="M416.207 166.352C416.207 175.821 412.441 184.904 405.743 191.603C399.05 198.301 389.967 202.061 380.492 202.061C371.024 202.061 361.94 198.301 355.242 191.603C348.543 184.905 344.783 175.821 344.783 166.352C344.783 156.878 348.544 147.795 355.242 141.101C361.94 134.403 371.023 130.638 380.492 130.638C389.966 130.638 399.05 134.403 405.743 141.101C412.441 147.794 416.207 156.877 416.207 166.352ZM335.504 455.192L384.791 271.245C393.91 237.215 341.655 223.163 307.859 239.5C286.755 249.724 268.771 265.417 255.78 284.943C277.015 275.62 324.431 254.521 307.187 318.864L257.9 502.811C248.78 536.841 301.036 550.893 334.832 534.556C355.941 524.337 373.92 508.644 386.911 489.119C365.676 498.442 318.26 519.54 335.504 455.197V455.192ZM671.997 335.999C671.997 425.113 636.596 510.572 573.585 573.585C510.575 636.596 425.105 671.997 335.999 671.997C246.892 671.997 161.425 636.596 98.412 573.585C35.4013 510.575 0 425.105 0 335.999C0 246.892 35.4013 161.425 98.412 98.412C161.423 35.4013 246.892 0 335.999 0C425.081 0.0989587 510.479 35.5307 573.479 98.5267C636.473 161.516 671.905 246.913 672.005 336.007L671.997 335.999ZM634.664 335.999C634.664 256.785 603.195 180.825 547.185 124.812C491.176 68.7987 415.212 37.3333 335.999 37.3333C256.785 37.3333 180.825 68.8027 124.812 124.812C68.7987 180.821 37.3333 256.785 37.3333 335.999C37.3333 415.212 68.8027 491.172 124.812 547.185C180.821 603.199 256.785 634.664 335.999 634.664C415.181 634.575 491.092 603.08 547.092 547.085C603.087 491.096 634.581 415.179 634.671 335.992L634.664 335.999Z" fill="black"/>
</svg>
