<svg width="747" height="747" viewBox="0 0 747 747" fill="none" xmlns="http://www.w3.org/2000/svg">
<path d="M373.336 0C274.32 0 179.363 39.3333 109.349 109.349C39.3333 179.36 0 274.323 0 373.336C0 472.349 39.3333 567.309 109.349 637.323C179.36 707.339 274.323 746.672 373.336 746.672C472.349 746.672 567.309 707.339 637.323 637.323C707.339 567.312 746.672 472.349 746.672 373.336C746.557 274.357 707.188 179.469 637.199 109.483C567.209 39.4933 472.319 0.122667 373.345 0.00933333L373.336 0ZM373.336 574.36C365.721 574.36 358.415 571.334 353.029 565.949C347.644 560.563 344.618 553.256 344.618 545.642C344.618 538.027 347.644 530.721 353.029 525.335C358.415 519.95 365.722 516.924 373.336 516.924C380.95 516.924 388.257 519.95 393.643 525.335C399.028 530.721 402.054 538.028 402.054 545.642C402.054 553.256 399.028 560.563 393.643 565.949C388.257 571.334 380.95 574.36 373.336 574.36ZM436.716 408C418.883 425.833 402.055 442.661 402.055 459.495C402.055 469.75 396.581 479.235 387.695 484.364C378.809 489.494 367.861 489.494 358.976 484.364C350.091 479.234 344.616 469.749 344.616 459.495C348.34 423.005 366.976 389.677 396.105 367.396C413.944 349.563 430.772 332.729 430.772 315.901C430.772 295.38 419.824 276.423 402.053 266.161C384.283 255.901 362.387 255.901 344.616 266.161C326.845 276.422 315.897 295.38 315.897 315.901C315.897 326.162 310.423 335.641 301.537 340.771C292.652 345.901 281.709 345.901 272.824 340.771C263.939 335.64 258.464 326.161 258.464 315.901C258.464 274.865 280.355 236.943 315.896 216.423C351.437 195.903 395.229 195.901 430.771 216.423C466.312 236.944 488.203 274.865 488.203 315.901C484.479 352.391 465.848 385.719 436.713 408H436.716Z" fill="black"/>
</svg>
